<svg xmlns="http://www.w3.org/2000/svg" viewBox="0 0 64 64" fill="none">
  <circle cx="32" cy="32" r="30" fill="#F5C518"/>
  <path d="M34 10c0 4-2 7-5 8" stroke="#2D5A27" stroke-width="3" stroke-linecap="round"/>
  <path d="M18 28c2-10 12-16 22-14 6 1 12 7 12 16 0 10-6 18-14 20-10 2-18-4-20-12-1-4 0-8 0-10z" fill="#FFE566"/>
  <path d="M22 30c1-7 8-12 15-11 5 1 9 5 9 12 0 7-4 13-10 14-7 2-13-2-14-8-.5-3 0-5.5 0-7z" fill="#F5C518"/>
  <path d="M30 12c4 0 7 2 8 5-3-1-6 0-8-2-1-1-1-2 0-3z" fill="#2D5A27"/>
</svg>
